<svg width="24" height="24" viewBox="0 0 24 24" fill="none" xmlns="http://www.w3.org/2000/svg">
    <path fill-rule="evenodd" clip-rule="evenodd"
        d="M17.7072 3.29292L17 2.58582L16.2929 3.29292L8.79294 10.7929L8.55724 11.0286L8.5101 11.3586L8.0101 14.8586L7.82153 16.1785L9.14147 15.99L12.6415 15.49L12.9714 15.4428L13.2072 15.2071L20.7072 7.70714L21.4143 7.00003L20.7072 6.29292L17.7072 3.29292ZM10.1786 13.8215L10.4429 11.9714L14.7072 7.70712L16.293 9.29291L12.0286 13.5572L10.1786 13.8215ZM17.7072 7.87869L18.5858 7.00003L17 5.41424L16.1214 6.29291L17.7072 7.87869Z"
        fill="currentColor" />
    <path d="M9.07407 6H5V19H17V15" stroke="currentColor" stroke-width="2" />
</svg>