<svg xmlns="http://www.w3.org/2000/svg" width="24" height="24" viewBox="0 0 24 24" fill="currentColor"><path d="M12 0.5C5.37 0.5 0 5.87 0 12.5c0 5.28 3.438 9.747 8.205 11.325.6.111.82-.261.82-.577v-2.256c-3.338.726-4.033-1.416-4.033-1.416-.546-1.387-1.333-1.756-1.333-1.756-1.089-.745.083-.729.083-.729 1.205.085 1.84 1.238 1.84 1.238 1.07 1.833 2.807 1.304 3.492.997.108-.775.418-1.304.762-1.604-2.665-.304-5.467-1.332-5.467-5.931 0-1.31.469-2.381 1.236-3.221-.124-.303-.535-1.527.117-3.176 0 0 1.008-.323 3.3 1.23a11.52 11.52 0 0 1 3-.404c1.02.005 2.047.137 3 .404 2.291-1.553 3.297-1.23 3.297-1.23.654 1.649.243 2.873.12 3.176.77.84 1.235 1.911 1.235 3.221 0 4.609-2.807 5.624-5.48 5.921.43.37.823 1.102.823 2.222v3.293c0 .319.218.694.825.576C20.565 22.244 24 17.78 24 12.5 24 5.87 18.63.5 12 .5z" /></svg>