<svg width="24" height="24" viewBox="0 0 24 24" fill="none" xmlns="http://www.w3.org/2000/svg">
    <circle cx="12" cy="12" r="9" stroke="currentColor" stroke-width="2" />
    <path
        d="M11.1211 13.1211H12.625V13.0566C12.625 12.6914 12.8828 12.3906 13.4844 11.9824C14.3652 11.3809 14.709 10.8008 14.709 9.98438C14.709 8.63086 13.5918 7.72852 11.916 7.72852C10.1973 7.72852 9.01562 8.75977 8.84375 10.3711L10.4336 10.6504C10.5195 9.70508 11.0781 9.14648 11.8945 9.14648C12.5605 9.14648 12.9902 9.51172 12.9902 10.1133C12.9902 10.5645 12.8398 10.7793 12.1738 11.3164C11.293 12.0254 11.0781 12.3691 11.1211 13.1211ZM10.8848 16H12.9043V13.9805H10.8848V16Z"
        fill="currentColor" />
</svg>