<svg width="24" height="24" viewBox="0 0 24 24" fill="none" xmlns="http://www.w3.org/2000/svg">
    <mask id="path-1-outside-1_1_1097" maskUnits="userSpaceOnUse" x="3" y="4" width="17" height="17"
        fill="currentColor">
        <rect fill="white" x="3" y="4" width="17" height="17" />
        <path fill-rule="evenodd" clip-rule="evenodd"
            d="M11.6426 13.2747C11.8296 13.7008 11.9333 14.1716 11.9333 14.6667C11.9333 16.5813 10.3813 18.1333 8.46667 18.1333C6.55208 18.1333 5 16.5813 5 14.6667C5 12.7521 6.55208 11.2 8.46667 11.2C9.20261 11.2 9.88499 11.4293 10.4463 11.8204L16.2667 6H17.1333H18L18.0001 7L18 8L17.5001 8.5L17.3907 8.6H16.2667L15.7334 9.24821V10.2649L15.5001 10.5L15.0001 11H14.0001L11.6426 13.2747Z" />
    </mask>
    <path
        d="M11.6426 13.2747L10.2539 11.8355L9.2513 12.8028L9.8112 14.0785L11.6426 13.2747ZM10.4463 11.8204L9.30284 13.4613L10.6765 14.4185L11.8605 13.2346L10.4463 11.8204ZM16.2667 6V4H15.4382L14.8525 4.58579L16.2667 6ZM18 6L20 5.99984L19.9998 4H18V6ZM18.0001 7L20.0001 7.00008V6.99984L18.0001 7ZM18 8L19.4143 9.41416L20 8.82841L20 8.00008L18 8ZM17.5001 8.5L18.8496 9.97606L18.8827 9.94583L18.9144 9.91416L17.5001 8.5ZM17.3907 8.6V10.6H18.1672L18.7402 10.0761L17.3907 8.6ZM16.2667 8.6V6.6H15.3222L14.7221 7.32939L16.2667 8.6ZM15.7334 9.24821L14.1889 7.9776L13.7334 8.53127V9.24821H15.7334ZM15.7334 10.2649L17.1529 11.6738L17.7334 11.0889V10.2649H15.7334ZM15.5001 10.5L16.9143 11.9142L16.9196 11.9089L15.5001 10.5ZM15.0001 11V13H15.8285L16.4143 12.4142L15.0001 11ZM14.0001 11V9H13.1925L12.6114 9.56075L14.0001 11ZM9.8112 14.0785C9.88909 14.256 9.93333 14.4535 9.93333 14.6667H13.9333C13.9333 13.8897 13.77 13.1455 13.4739 12.4709L9.8112 14.0785ZM9.93333 14.6667C9.93333 15.4767 9.27668 16.1333 8.46667 16.1333V20.1333C11.4858 20.1333 13.9333 17.6858 13.9333 14.6667H9.93333ZM8.46667 16.1333C7.65665 16.1333 7 15.4767 7 14.6667H3C3 17.6858 5.44751 20.1333 8.46667 20.1333V16.1333ZM7 14.6667C7 13.8566 7.65665 13.2 8.46667 13.2V9.2C5.44751 9.2 3 11.6475 3 14.6667H7ZM8.46667 13.2C8.78069 13.2 9.06619 13.2964 9.30284 13.4613L11.5897 10.1795C10.7038 9.56221 9.62453 9.2 8.46667 9.2V13.2ZM11.8605 13.2346L17.6809 7.41421L14.8525 4.58579L9.03204 10.4062L11.8605 13.2346ZM16.2667 8H17.1333V4H16.2667V8ZM17.1333 8H18V4H17.1333V8ZM16 6.00016L16.0001 7.00016L20.0001 6.99984L20 5.99984L16 6.00016ZM16.0001 6.99992L16 7.99992L20 8.00008L20.0001 7.00008L16.0001 6.99992ZM16.5858 6.58584L16.0858 7.08584L18.9144 9.91416L19.4143 9.41416L16.5858 6.58584ZM16.1505 7.02394L16.0412 7.12394L18.7402 10.0761L18.8496 9.97606L16.1505 7.02394ZM17.3907 6.6H16.2667V10.6H17.3907V6.6ZM14.7221 7.32939L14.1889 7.9776L17.2779 10.5188L17.8112 9.87061L14.7221 7.32939ZM13.7334 9.24821V10.2649H17.7334V9.24821H13.7334ZM14.3139 8.85601L14.0806 9.0911L16.9196 11.9089L17.1529 11.6738L14.3139 8.85601ZM14.0859 9.08579L13.5859 9.58579L16.4143 12.4142L16.9143 11.9142L14.0859 9.08579ZM15.0001 9H14.0001V13H15.0001V9ZM12.6114 9.56075L10.2539 11.8355L13.0313 14.714L15.3888 12.4393L12.6114 9.56075Z"
        fill="currentColor" mask="url(#path-1-outside-1_1_1097)" />
    <circle cx="8.5" cy="14.6333" r="1.5" fill="currentColor" />
</svg>