<svg width="24" height="24" viewBox="0 0 24 24" fill="none" xmlns="http://www.w3.org/2000/svg"><path d="M19.7087 21.0248L13.2547 14.5743C12.7667 14.9886 12.1947 15.307 11.5388 15.5297C10.8829 15.7523 10.19 15.8636 9.45992 15.8636C7.65352 15.8636 6.124 15.2373 4.87135 13.9847C3.6187 12.732 2.99237 11.2152 2.99237 9.43411C2.99237 7.65304 3.61717 6.13593 4.86677 4.88278C6.11637 3.62965 7.636 3.00308 9.42565 3.00308C11.2153 3.00308 12.7339 3.62972 13.9815 4.88301C15.2291 6.13629 15.8529 7.65478 15.8529 9.43848C15.8529 10.1541 15.7409 10.8374 15.517 11.4884C15.2931 12.1394 14.9697 12.7373 14.5469 13.2822L21.0201 19.7154L19.7087 21.0248ZM9.44072 14.0531C10.723 14.0531 11.8105 13.604 12.7033 12.7057C13.596 11.8075 14.0424 10.7164 14.0424 9.43236C14.0424 8.14834 13.5958 7.05754 12.7027 6.15996C11.8095 5.26237 10.7208 4.81358 9.43655 4.81358C8.14301 4.81358 7.04735 5.26271 6.14957 6.16096C5.25179 7.05919 4.8029 8.15031 4.8029 9.43431C4.8029 10.7183 5.25182 11.8091 6.14967 12.7067C7.04754 13.6043 8.14455 14.0531 9.44072 14.0531Z" fill="currentColor"/></svg>
